<mxfile host="app.diagrams.net" agent="Mozilla/5.0 (X11; CrOS x86_64 14541.0.0) AppleWebKit/537.36 (KHTML, like Gecko) Chrome/132.0.0.0 Safari/537.36" version="26.0.11">
  <diagram name="Page-1" id="QJk-dCjoNFq30MaKlrhX">
    <mxGraphModel dx="1050" dy="522" grid="1" gridSize="10" guides="1" tooltips="1" connect="1" arrows="1" fold="1" page="1" pageScale="1" pageWidth="850" pageHeight="1100" math="0" shadow="0">
      <root>
        <mxCell id="0" />
        <mxCell id="1" parent="0" />
        <mxCell id="QcvXr6RohBXsnEZQoMlV-3" value="" style="edgeStyle=orthogonalEdgeStyle;rounded=0;orthogonalLoop=1;jettySize=auto;html=1;" parent="1" source="QcvXr6RohBXsnEZQoMlV-1" target="QcvXr6RohBXsnEZQoMlV-2" edge="1">
          <mxGeometry relative="1" as="geometry" />
        </mxCell>
        <mxCell id="QcvXr6RohBXsnEZQoMlV-1" value="Start" style="ellipse;whiteSpace=wrap;html=1;" parent="1" vertex="1">
          <mxGeometry x="80" y="80" width="120" height="40" as="geometry" />
        </mxCell>
        <mxCell id="QcvXr6RohBXsnEZQoMlV-5" value="" style="edgeStyle=orthogonalEdgeStyle;rounded=0;orthogonalLoop=1;jettySize=auto;html=1;" parent="1" source="QcvXr6RohBXsnEZQoMlV-2" target="QcvXr6RohBXsnEZQoMlV-4" edge="1">
          <mxGeometry relative="1" as="geometry" />
        </mxCell>
        <mxCell id="QcvXr6RohBXsnEZQoMlV-2" value="INPUT&lt;div&gt;milesDriven&lt;/div&gt;" style="shape=parallelogram;perimeter=parallelogramPerimeter;whiteSpace=wrap;html=1;fixedSize=1;flipV=1;" parent="1" vertex="1">
          <mxGeometry x="80" y="160" width="120" height="60" as="geometry" />
        </mxCell>
        <mxCell id="QcvXr6RohBXsnEZQoMlV-7" value="" style="edgeStyle=orthogonalEdgeStyle;rounded=0;orthogonalLoop=1;jettySize=auto;html=1;" parent="1" source="QcvXr6RohBXsnEZQoMlV-4" target="QcvXr6RohBXsnEZQoMlV-6" edge="1">
          <mxGeometry relative="1" as="geometry" />
        </mxCell>
        <mxCell id="QcvXr6RohBXsnEZQoMlV-4" value="INPUT&lt;div&gt;gallonsOfGas&lt;/div&gt;" style="shape=parallelogram;perimeter=parallelogramPerimeter;whiteSpace=wrap;html=1;fixedSize=1;flipV=1;" parent="1" vertex="1">
          <mxGeometry x="80" y="260" width="120" height="60" as="geometry" />
        </mxCell>
        <mxCell id="QcvXr6RohBXsnEZQoMlV-9" value="" style="edgeStyle=orthogonalEdgeStyle;rounded=0;orthogonalLoop=1;jettySize=auto;html=1;" parent="1" source="QcvXr6RohBXsnEZQoMlV-6" target="QcvXr6RohBXsnEZQoMlV-8" edge="1">
          <mxGeometry relative="1" as="geometry" />
        </mxCell>
        <mxCell id="QcvXr6RohBXsnEZQoMlV-6" value="milesPerGallon =&amp;nbsp;&lt;div&gt;&lt;span style=&quot;background-color: transparent; color: light-dark(rgb(0, 0, 0), rgb(255, 255, 255));&quot;&gt;milesDriven / gallonsOfGas&lt;/span&gt;&lt;/div&gt;" style="whiteSpace=wrap;html=1;" parent="1" vertex="1">
          <mxGeometry x="80" y="360" width="120" height="60" as="geometry" />
        </mxCell>
        <mxCell id="QcvXr6RohBXsnEZQoMlV-11" value="" style="edgeStyle=orthogonalEdgeStyle;rounded=0;orthogonalLoop=1;jettySize=auto;html=1;" parent="1" source="QcvXr6RohBXsnEZQoMlV-8" target="QcvXr6RohBXsnEZQoMlV-10" edge="1">
          <mxGeometry relative="1" as="geometry" />
        </mxCell>
        <mxCell id="QcvXr6RohBXsnEZQoMlV-8" value="OUTPUT&lt;div&gt;milesPerGallon&lt;/div&gt;" style="shape=parallelogram;perimeter=parallelogramPerimeter;whiteSpace=wrap;html=1;fixedSize=1;flipV=0;" parent="1" vertex="1">
          <mxGeometry x="80" y="460" width="120" height="60" as="geometry" />
        </mxCell>
        <mxCell id="QcvXr6RohBXsnEZQoMlV-10" value="Stop" style="ellipse;whiteSpace=wrap;html=1;" parent="1" vertex="1">
          <mxGeometry x="80" y="560" width="120" height="40" as="geometry" />
        </mxCell>
        <mxCell id="QcvXr6RohBXsnEZQoMlV-12" value="Author: Moniquia Hicks&lt;div&gt;Date: 1/25/2025&lt;/div&gt;&lt;div&gt;Program: MPG Calculator&lt;/div&gt;&lt;div&gt;Version: 1.0&lt;/div&gt;" style="shape=note;whiteSpace=wrap;html=1;backgroundOutline=1;fontColor=#000000;darkOpacity=0.05;fillColor=#FFF9B2;strokeColor=none;fillStyle=solid;direction=west;gradientDirection=north;gradientColor=#FFF2A1;shadow=1;size=20;pointerEvents=1;" parent="1" vertex="1">
          <mxGeometry x="440" y="80" width="170" height="120" as="geometry" />
        </mxCell>
        <mxCell id="QcvXr6RohBXsnEZQoMlV-15" value="Initialization" style="shape=note;whiteSpace=wrap;html=1;backgroundOutline=1;fontColor=#000000;darkOpacity=0.05;fillColor=#FFF9B2;strokeColor=none;fillStyle=solid;direction=west;gradientDirection=north;gradientColor=#FFF2A1;shadow=1;size=20;pointerEvents=1;" parent="1" vertex="1">
          <mxGeometry x="260" y="80" width="120" height="40" as="geometry" />
        </mxCell>
        <mxCell id="QcvXr6RohBXsnEZQoMlV-16" value="get data" style="shape=note;whiteSpace=wrap;html=1;backgroundOutline=1;fontColor=#000000;darkOpacity=0.05;fillColor=#FFF9B2;strokeColor=none;fillStyle=solid;direction=west;gradientDirection=north;gradientColor=#FFF2A1;shadow=1;size=20;pointerEvents=1;" parent="1" vertex="1">
          <mxGeometry x="260" y="220" width="120" height="40" as="geometry" />
        </mxCell>
        <mxCell id="QcvXr6RohBXsnEZQoMlV-18" value="process data" style="shape=note;whiteSpace=wrap;html=1;backgroundOutline=1;fontColor=#000000;darkOpacity=0.05;fillColor=#FFF9B2;strokeColor=none;fillStyle=solid;direction=west;gradientDirection=north;gradientColor=#FFF2A1;shadow=1;size=20;pointerEvents=1;" parent="1" vertex="1">
          <mxGeometry x="260" y="360" width="120" height="40" as="geometry" />
        </mxCell>
        <mxCell id="QcvXr6RohBXsnEZQoMlV-20" value="output information" style="shape=note;whiteSpace=wrap;html=1;backgroundOutline=1;fontColor=#000000;darkOpacity=0.05;fillColor=#FFF9B2;strokeColor=none;fillStyle=solid;direction=west;gradientDirection=north;gradientColor=#FFF2A1;shadow=1;size=20;pointerEvents=1;" parent="1" vertex="1">
          <mxGeometry x="260" y="460" width="120" height="40" as="geometry" />
        </mxCell>
        <mxCell id="7Zta27HuthyF4VQ5SzY5-1" value="" style="endArrow=classic;html=1;rounded=0;" edge="1" parent="1">
          <mxGeometry width="50" height="50" relative="1" as="geometry">
            <mxPoint x="40" y="189.5" as="sourcePoint" />
            <mxPoint x="90" y="189.5" as="targetPoint" />
          </mxGeometry>
        </mxCell>
        <mxCell id="7Zta27HuthyF4VQ5SzY5-3" value="" style="endArrow=classic;html=1;rounded=0;" edge="1" parent="1">
          <mxGeometry width="50" height="50" relative="1" as="geometry">
            <mxPoint x="40" y="289.5" as="sourcePoint" />
            <mxPoint x="90" y="289.5" as="targetPoint" />
          </mxGeometry>
        </mxCell>
        <mxCell id="7Zta27HuthyF4VQ5SzY5-4" value="" style="endArrow=classic;html=1;rounded=0;" edge="1" parent="1">
          <mxGeometry width="50" height="50" relative="1" as="geometry">
            <mxPoint x="190" y="489.5" as="sourcePoint" />
            <mxPoint x="240" y="489.5" as="targetPoint" />
          </mxGeometry>
        </mxCell>
      </root>
    </mxGraphModel>
  </diagram>
</mxfile>
